<svg xmlns="http://www.w3.org/2000/svg" xmlns:xlink="http://www.w3.org/1999/xlink" viewBox="0 0 242.89 84.36"><defs><style>.cls-1{fill:url(#linear-gradient);}.cls-2{fill:url(#linear-gradient-2);}.cls-3{fill:#231f20;}.cls-4{fill:#663695;}.cls-5{fill:none;}</style><linearGradient id="linear-gradient" y1="42.18" x2="242.89" y2="42.18" gradientUnits="userSpaceOnUse"><stop offset="0" stop-color="#fff4a7"/><stop offset="0.01" stop-color="#f8e99b"/><stop offset="0.04" stop-color="#e0c473"/><stop offset="0.07" stop-color="#cda754"/><stop offset="0.1" stop-color="#c0923e"/><stop offset="0.12" stop-color="#b88531"/><stop offset="0.15" stop-color="#b5812c"/><stop offset="0.21" stop-color="#c39339"/><stop offset="0.31" stop-color="#d3a947"/><stop offset="0.4" stop-color="#ddb650"/><stop offset="0.49" stop-color="#e0ba53"/><stop offset="0.59" stop-color="#ddb650"/><stop offset="0.69" stop-color="#d3a948"/><stop offset="0.79" stop-color="#c49539"/><stop offset="0.86" stop-color="#b5812c"/><stop offset="0.89" stop-color="#b88530"/><stop offset="0.91" stop-color="#bf913d"/><stop offset="0.94" stop-color="#cca451"/><stop offset="0.96" stop-color="#ddbf6e"/><stop offset="0.99" stop-color="#f3e294"/><stop offset="1" stop-color="#fff4a7"/></linearGradient><linearGradient id="linear-gradient-2" x1="121.45" y1="0" x2="121.45" y2="84.36" xlink:href="#linear-gradient"/></defs><g id="Layer_2" data-name="Layer 2"><g id="Layer_1-2" data-name="Layer 1"><rect class="cls-1" width="242.89" height="84.36" rx="10.16"/><path class="cls-2" d="M233.42,2c4.25,0,7.71,4,7.71,8.87V73.46c0,4.89-3.46,8.87-7.71,8.87H9.47c-4.25,0-7.7-4-7.7-8.87V10.9C1.77,6,5.22,2,9.47,2h224m0-2H9.47C4.24,0,0,4.88,0,10.9V73.46c0,6,4.24,10.9,9.47,10.9h224c5.23,0,9.47-4.88,9.47-10.9V10.9c0-6-4.24-10.9-9.47-10.9Z"/><path class="cls-3" d="M90.12,15c-.16-.2-.32-.44-.48-.64a2.08,2.08,0,0,0-.56-.64,6.64,6.64,0,0,0-.56-.52c0-.08-.08-.12-.12-.08a7,7,0,0,0-1.2-.8c0-.08-.08-.12-.16-.08a1.34,1.34,0,0,0-.56-.32s-.08-.08-.12,0a4.71,4.71,0,0,0-.8-.28,2.65,2.65,0,0,0-.8-.24,6.89,6.89,0,0,0-1.56-.16H73.88L60.36,41.31,46.84,11.15H37.68a8.58,8.58,0,0,0-8.52,8.64V72.23H43.6V31.75L54.72,57.87H65.16l11.08-26,0-.08V72.23H91.56V19.79A9.16,9.16,0,0,0,90.12,15Zm-31,30.52a1.42,1.42,0,0,1,1-.4,1.71,1.71,0,0,1,1.72,1.72,1.84,1.84,0,0,1-1.72,1.72,1.73,1.73,0,0,1-1.68-1.72A1.58,1.58,0,0,1,59.16,45.47Zm1.2,8.32a1.73,1.73,0,0,1-1.72-1.72,1.72,1.72,0,0,1,3.44,0A1.73,1.73,0,0,1,60.36,53.79Z"/><path class="cls-4" d="M169,11.15h-9.16L146.32,41.31,132.8,11.15h-9.16a8.58,8.58,0,0,0-8.52,8.64V72.23h14.44V31.75l11.12,26.12h10.44l11.12-26.12V72.23h15.28V19.79A8.58,8.58,0,0,0,169,11.15Z"/><path class="cls-3" d="M107.08,39.47l21.8-28.32H111.12L91.6,38.23V18.91a8.24,8.24,0,0,0-1.48-4c-.16-.2-.32-.44-.48-.64a2.08,2.08,0,0,0-.56-.64,6.64,6.64,0,0,0-.56-.52c0-.08-.08-.12-.12-.08a7,7,0,0,0-1.2-.8c0-.08-.08-.12-.16-.08a1.34,1.34,0,0,0-.56-.32s-.08-.08-.12,0a4.71,4.71,0,0,0-.8-.28,2.65,2.65,0,0,0-.8-.24,6.89,6.89,0,0,0-1.56-.16h-7v61H91.6V51.59l3-4.2,16.68,24.8h18.52Z"/><path class="cls-5" d="M124.32,8.82v7.76a8.55,8.55,0,0,0-8.48-7.76Z"/><path class="cls-4" d="M218.17,72.22H199.46l-17-22.39H177V72.22H161.69V11.15h24.57a53.34,53.34,0,0,1,8.86.64,18.8,18.8,0,0,1,7,2.64,16.11,16.11,0,0,1,5.21,5.31,15.81,15.81,0,0,1,1.93,8.19q0,7-3.16,11.38a22.24,22.24,0,0,1-8.45,6.95ZM193.48,29.85a8.4,8.4,0,0,0-.88-4,5.87,5.87,0,0,0-2.94-2.57,10.58,10.58,0,0,0-3.2-.78c-1.17-.11-2.64-.16-4.39-.16H177V38.84h4.39a32.19,32.19,0,0,0,5.43-.39,8.14,8.14,0,0,0,3.79-1.66,7.24,7.24,0,0,0,2.2-2.75A10.31,10.31,0,0,0,193.48,29.85Z"/><polygon class="cls-3" points="60.47 14.93 50.59 17.99 50.59 11.88 60.47 14.93"/><polygon class="cls-3" points="60.21 14.93 70.09 11.88 70.09 17.99 60.21 14.93"/></g></g></svg>